<?xml version="1.0"?><!DOCTYPE svg  PUBLIC '-//W3C//DTD SVG 1.1//EN'  'http://www.w3.org/Graphics/SVG/1.1/DTD/svg11.dtd'><svg height="512px" style="enable-background:new -50 -50 612 612;transform: rotate(45deg);" version="1.1" viewBox="-50 -50 612 612" width="512px" xml:space="preserve" xmlns="http://www.w3.org/2000/svg" xmlns:xlink="http://www.w3.org/1999/xlink"><g id="_x33_9-snapchat"><g><g><g><path d="M485.234,366.68c-63.793-10.528-92.547-76.049-93.709-78.83c-0.09-0.179-0.15-0.361-0.268-0.539      c-3.248-6.636-4.027-12.112-2.24-16.267c3.492-8.196,16.852-12.439,25.682-15.258c2.564-0.8,4.984-1.579,6.98-2.357      c8.705-3.441,14.912-7.177,19.025-11.395c4.895-5.059,5.846-9.897,5.785-13.041c-0.15-7.655-5.99-14.47-15.322-17.793      c-3.137-1.284-6.74-1.97-10.383-1.97c-2.475,0-6.178,0.327-9.662,1.97c-7.463,3.502-14.143,5.415-19.898,5.68      c-3.035-0.149-5.189-0.806-6.59-1.429c0.178-2.995,0.359-6.074,0.57-9.243l0.086-1.38c2.057-32.384,4.592-72.669-6.086-96.595      c-7.301-16.386-17.123-30.472-29.197-41.9c-10.107-9.568-21.857-17.345-34.926-23.082      c-22.693-10.05-43.871-11.545-54.488-11.545h-1.195c-2.949,0.028-7.748,0.088-8.203,0.088c-10.584,0-31.789,1.496-54.545,11.546      c-13.035,5.743-24.725,13.486-34.808,23.058c-12.019,11.424-21.802,25.478-29.082,41.804      c-10.673,23.896-8.143,64.183-6.111,96.539v0.061c0.205,3.469,0.449,7.089,0.656,10.619c-1.553,0.688-4.088,1.46-7.814,1.46      c-6.023,0-13.182-1.911-21.268-5.713c-2.387-1.102-5.1-1.674-8.082-1.674c-4.799,0-9.898,1.411-14.287,4.012      c-5.545,3.257-9.126,7.833-10.111,12.944c-0.627,3.352-0.594,10.021,6.803,16.78c4.082,3.712,10.049,7.149,17.775,10.199      c2.029,0.808,4.443,1.558,6.979,2.357c8.831,2.818,22.218,7.062,25.71,15.258c1.758,4.154,0.98,9.631-2.268,16.267      c-0.09,0.178-0.184,0.36-0.239,0.539c-0.835,1.912-8.438,19.11-24.038,37.267c-8.859,10.316-18.609,18.955-28.992,25.658      c-12.676,8.189-26.363,13.515-40.711,15.878c-5.635,0.928-9.666,5.952-9.338,11.665c0.094,1.643,0.479,3.287,1.168,4.872v0.027      c2.291,5.353,7.574,9.872,16.166,13.851c10.496,4.872,26.186,8.973,46.674,12.171c1.041,1.978,2.115,6.908,2.859,10.283      c0.779,3.596,1.59,7.303,2.748,11.216c1.251,4.249,4.471,9.333,12.797,9.333c3.158,0,6.769-0.72,10.973-1.521      c6.141-1.202,14.559-2.846,25.027-2.846c5.816,0,11.84,0.505,17.892,1.526c11.69,1.94,21.773,9.061,33.436,17.315      c17.059,12.08,36.389,25.748,65.912,25.748c0.805,0,1.611-0.027,2.416-0.088c0.957,0.061,2.176,0.088,3.432,0.088      c29.527,0,48.85-13.668,65.912-25.721l0.033-0.027c11.658-8.226,21.74-15.342,33.432-17.288      c6.055-1.015,12.074-1.526,17.891-1.526c10.021,0,17.959,1.287,25.027,2.667c4.623,0.89,8.203,1.345,10.979,1.345h0.535      c6.084,0,10.555-3.35,12.258-9.182c1.135-3.857,1.939-7.444,2.74-11.124c0.689-3.174,1.824-8.255,2.836-10.232      c20.488-3.225,36.178-7.295,46.68-12.171c8.559-3.979,13.838-8.492,16.129-13.817c0.689-1.585,1.105-3.226,1.199-4.933      C494.902,372.632,490.873,367.58,485.234,366.68L485.234,366.68z M485.234,366.68" style="fill:#FFEB3B;"/></g></g></g></g><g id="Layer_1"/></svg>